# xmcd CD database file
#
# Track frame offsets:
#	150
#	24000
#	42375
#	59565
#	79372
#	98055
#	110726
#	130312
#	153024
#
# Disc length: 2325 seconds
#
# Revision: 0
# Processed by: cddbd v1.5PL3 Copyright (c) Steve Scherf et al.
# Submitted via: CDex 1.50beta10
#
DISCID=6e091309
DTITLE=SCRIPT - Ultimate or Incomplete
DYEAR=2003
DGENRE=New Age
TTITLE0=SINGLES
TTITLE1=Bambi Jump
TTITLE2=Switch
TTITLE3=Ultimate Machine
TTITLE4=夏一番
TTITLE5=アイスキャンディー
TTITLE6=０時１０分
TTITLE7=エール
TTITLE8=トーキョー・ブルー
EXTD=YEAR: 2003
EXTT0=
EXTT1=
EXTT2=
EXTT3=
EXTT4=
EXTT5=
EXTT6=
EXTT7=
EXTT8=
PLAYORDER=
